<svg width="16" height="16" viewBox="0 0 16 16" fill="none" xmlns="http://www.w3.org/2000/svg">
<path fill-rule="evenodd" clip-rule="evenodd" d="M3.5 0.50769H12.5C14.1569 0.50769 15.5 1.84946 15.5 3.50461V12.4954C15.5 14.1505 14.1569 15.4923 12.5 15.4923H3.5C1.84315 15.4923 0.5 14.1505 0.5 12.4954V3.50461C0.5 1.84946 1.84315 0.50769 3.5 0.50769ZM8 4.44114C8.31066 4.44114 8.5625 4.69272 8.5625 5.00306V7.43806H11C11.3107 7.43806 11.5625 7.68964 11.5625 7.99998C11.5625 8.31032 11.3107 8.5619 11 8.5619H8.5625V10.9969C8.5625 11.3072 8.31066 11.5588 8 11.5588C7.68934 11.5588 7.4375 11.3072 7.4375 10.9969V8.5619H5C4.68934 8.5619 4.4375 8.31032 4.4375 7.99998C4.4375 7.68964 4.68934 7.43806 5 7.43806H7.4375V5.00306C7.4375 4.69272 7.68934 4.44114 8 4.44114Z" fill="white"/>
</svg>
