<svg width="9" height="8" viewBox="0 0 9 8" fill="none" xmlns="http://www.w3.org/2000/svg">
<path d="M4.50469 4.26564L2.37969 6.39064C2.23281 6.53752 1.99531 6.53752 1.85 6.39064L1.49687 6.03752C1.35 5.89064 1.35 5.65314 1.49687 5.50783L3.00312 4.00158L1.49687 2.49533C1.35 2.34846 1.35 2.11096 1.49687 1.96564L1.84844 1.60939C1.99531 1.46252 2.23281 1.46252 2.37812 1.60939L4.50312 3.73439C4.65156 3.88127 4.65156 4.11877 4.50469 4.26564ZM7.50469 3.73439L5.37969 1.60939C5.23281 1.46252 4.99531 1.46252 4.85 1.60939L4.49688 1.96252C4.35 2.10939 4.35 2.34689 4.49688 2.49221L6.00313 3.99846L4.49688 5.50471C4.35 5.65158 4.35 5.88908 4.49688 6.03439L4.85 6.38752C4.99687 6.53439 5.23437 6.53439 5.37969 6.38752L7.50469 4.26252C7.65156 4.11877 7.65156 3.88127 7.50469 3.73439Z" fill="#A60B09"/>
</svg>
