<svg width="25" height="25" viewBox="0 0 25 25" fill="none" xmlns="http://www.w3.org/2000/svg">
<path d="M13.9505 7.78995C14.2954 8.13203 14.339 8.6631 14.0798 9.0529C14.3339 9.13905 14.5476 9.32562 14.6649 9.57695C14.8292 9.92894 14.7749 10.3442 14.5254 10.6421L13.2692 12.1421C12.9146 12.5655 12.2839 12.6213 11.8605 12.2667C11.4801 11.9481 11.3965 11.4067 11.6404 10.993C11.2852 10.9508 10.9756 10.7204 10.8357 10.3846C10.6804 10.012 10.7645 9.5825 11.0487 9.29585L12.5363 7.79585C12.9252 7.4037 13.5583 7.40106 13.9505 7.78995Z" fill="#A60B09"/>
<path fill-rule="evenodd" clip-rule="evenodd" d="M5.25879 10C5.25879 5.85786 8.61665 2.5 12.7588 2.5C16.9009 2.5 20.2588 5.85786 20.2588 10C20.2588 12.7622 18.7654 15.174 16.5459 16.4748L15.8026 19.4479C15.648 20.0662 15.0925 20.5 14.4551 20.5C14.3171 20.5 14.1762 20.5127 14.0212 20.5348C14.4462 20.6501 14.7588 21.0385 14.7588 21.5C14.7588 22.0523 14.3111 22.5 13.7588 22.5H11.7588C11.2065 22.5 10.7588 22.0523 10.7588 21.5C10.7588 21.0385 11.0714 20.6501 11.4964 20.5348C11.3414 20.5127 11.2005 20.5 11.0624 20.5C10.4251 20.5 9.86957 20.0662 9.715 19.4479L8.97172 16.4748C6.75217 15.174 5.25879 12.7622 5.25879 10ZM12.7588 4.5C9.72122 4.5 7.25879 6.96243 7.25879 10C7.25879 12.1465 8.48822 14.0076 10.2859 14.9143C10.5455 15.0452 10.7352 15.2826 10.8057 15.5646L11.5461 18.5263C11.8568 18.5584 12.146 18.614 12.3901 18.661L12.4233 18.6674C12.4886 18.6799 12.5508 18.6919 12.6125 18.7034C12.6944 18.7187 12.7423 18.722 12.7588 18.722C12.7753 18.722 12.8231 18.7187 12.905 18.7034C12.9668 18.6919 13.029 18.6799 13.0943 18.6674L13.1274 18.661C13.3715 18.614 13.6608 18.5584 13.9714 18.5263L14.7119 15.5646C14.7824 15.2826 14.9721 15.0452 15.2317 14.9143C17.0294 14.0076 18.2588 12.1465 18.2588 10C18.2588 6.96243 15.7964 4.5 12.7588 4.5Z" fill="#A60B09"/>
</svg>
