<svg width="25" height="25" viewBox="0 0 25 25" fill="none" xmlns="http://www.w3.org/2000/svg">
<path fill-rule="evenodd" clip-rule="evenodd" d="M9.96038 3.30756C8.39829 1.74546 5.86563 1.74546 4.30353 3.30756L3.768 3.84309C3.02963 4.58146 2.5246 5.68793 2.81266 6.88653C3.25428 8.72404 4.58317 12.0725 8.54617 16.0355C12.5092 19.9985 15.8576 21.3274 17.6951 21.769C18.8937 22.0571 20.0002 21.552 20.7386 20.8137L21.2741 20.2781C22.8362 18.716 22.8362 16.1834 21.2741 14.6213L20.3452 13.6924C19.072 12.4191 17.1049 12.1536 15.5396 13.0437L15.443 13.0985C14.8016 13.4633 14.0647 13.4335 13.5427 13.0557C13.1215 12.7508 12.7189 12.43 12.4353 12.1464C12.1516 11.8628 11.8308 11.4602 11.526 11.039C11.1482 10.5169 11.1184 9.78004 11.4831 9.13861L11.538 9.04207C12.4281 7.47677 12.1625 5.5097 10.8893 4.23644L9.96038 3.30756ZM5.71774 4.72177C6.49879 3.94072 7.76512 3.94072 8.54617 4.72177L9.47505 5.65065C10.1117 6.28728 10.2445 7.27082 9.79941 8.05347L9.74452 8.15C9.03962 9.38966 9.01489 10.9805 9.90577 12.2115C10.233 12.6637 10.6263 13.1658 11.021 13.5606C11.4158 13.9554 11.918 14.3487 12.3701 14.6759C13.6011 15.5668 15.192 15.542 16.4317 14.8371L16.5282 14.7822C17.3108 14.3372 18.2944 14.47 18.931 15.1066L19.8599 16.0355C20.6409 16.8165 20.6409 18.0829 19.8599 18.8639L19.3243 19.3994C18.9375 19.7863 18.5111 19.9082 18.1625 19.8244C16.6934 19.4713 13.6701 18.3309 9.96038 14.6213C6.25071 10.9116 5.11035 7.88822 4.75729 6.41918C4.6735 6.07053 4.79536 5.64416 5.18221 5.25731L5.71774 4.72177Z" fill="#A60B09"/>
</svg>
