<svg width="16" height="16" viewBox="0 0 16 16" fill="none" xmlns="http://www.w3.org/2000/svg">
<path d="M5.12799 7.93134L6.06799 8.24467C6.68932 8.45134 6.99932 8.55534 7.22199 8.778C7.44466 9.00067 7.54866 9.31134 7.75532 9.93134L8.06866 10.8713C8.59132 12.4407 8.85266 13.2247 9.33332 13.2247C9.81332 13.2247 10.0753 12.4407 10.598 10.8713L12.49 5.19667C12.858 4.09267 13.042 3.54067 12.7507 3.24934C12.4593 2.958 11.9073 3.142 10.804 3.50934L5.12732 5.40267C3.55999 5.92467 2.77466 6.186 2.77466 6.66667C2.77466 7.14667 3.55932 7.40867 5.12799 7.93134Z" fill="black" fill-opacity="0.25"/>
<path d="M5.12799 7.93134L6.06799 8.24467C6.68932 8.45134 6.99932 8.55534 7.22199 8.778C7.44466 9.00067 7.54866 9.31134 7.75532 9.93134L8.06866 10.8713C8.59132 12.4407 8.85266 13.2247 9.33332 13.2247C9.81332 13.2247 10.0753 12.4407 10.598 10.8713L12.49 5.19667C12.858 4.09267 13.042 3.54067 12.7507 3.24934C12.4593 2.958 11.9073 3.142 10.804 3.50934L5.12732 5.40267C3.55999 5.92467 2.77466 6.186 2.77466 6.66667C2.77466 7.14667 3.55932 7.40867 5.12799 7.93134Z" fill="#A60B09"/>
<path d="M6.3506 9.228L4.97593 8.77C4.87974 8.73793 4.7775 8.72823 4.67699 8.74163C4.57649 8.75504 4.48036 8.79119 4.39593 8.84733L3.66926 9.33133C3.58324 9.38864 3.51573 9.46972 3.47494 9.56469C3.43414 9.65966 3.42182 9.76444 3.43948 9.86629C3.45714 9.96813 3.50401 10.0626 3.57439 10.1383C3.64477 10.214 3.73564 10.2677 3.83593 10.2927L5.13926 10.618C5.19792 10.6326 5.25148 10.663 5.29423 10.7057C5.33697 10.7485 5.36729 10.802 5.38193 10.8607L5.70726 12.164C5.73227 12.2643 5.78589 12.3552 5.86158 12.4255C5.93728 12.4959 6.0318 12.5428 6.13365 12.5605C6.23549 12.5781 6.34027 12.5658 6.43524 12.525C6.53021 12.4842 6.61129 12.4167 6.6686 12.3307L7.1526 11.604C7.20875 11.5196 7.2449 11.4234 7.2583 11.3229C7.2717 11.2224 7.262 11.1202 7.22993 11.024L6.77193 9.64933C6.73919 9.55124 6.68408 9.4621 6.61096 9.38898C6.53783 9.31585 6.44869 9.26074 6.3506 9.228Z" fill="#A60B09"/>
</svg>
