<svg width="25" height="24" viewBox="0 0 25 24" fill="none" xmlns="http://www.w3.org/2000/svg">
<path fill-rule="evenodd" clip-rule="evenodd" d="M24.8272 10.5669L24.036 20.0614C23.874 22.005 22.2493 23.5 20.2989 23.5H4.69993C2.7496 23.5 1.12485 22.005 0.962881 20.0614L0.171675 10.5669C0.0644954 9.28079 0.62623 8.0299 1.65872 7.25553L10.2494 0.8125C11.5828 -0.1875 13.4161 -0.1875 14.7494 0.8125L23.3401 7.25553C24.3726 8.0299 24.9344 9.28079 24.8272 10.5669ZM9.99947 21.625L9.63398 17.2392C9.49428 15.5628 10.8172 14.125 12.4995 14.125C14.1817 14.125 15.5047 15.5628 15.365 17.2392L14.9995 21.625H9.99947Z" fill="white"/>
</svg>
