<svg width="25" height="25" viewBox="0 0 25 25" fill="none" xmlns="http://www.w3.org/2000/svg">
<path d="M5.13794 10.5C4.03794 10.5 3.13794 11.4 3.13794 12.5C3.13794 13.6 4.03794 14.5 5.13794 14.5C6.23794 14.5 7.13794 13.6 7.13794 12.5C7.13794 11.4 6.23794 10.5 5.13794 10.5ZM19.1379 10.5C18.0379 10.5 17.1379 11.4 17.1379 12.5C17.1379 13.6 18.0379 14.5 19.1379 14.5C20.2379 14.5 21.1379 13.6 21.1379 12.5C21.1379 11.4 20.2379 10.5 19.1379 10.5ZM12.1379 10.5C11.0379 10.5 10.1379 11.4 10.1379 12.5C10.1379 13.6 11.0379 14.5 12.1379 14.5C13.2379 14.5 14.1379 13.6 14.1379 12.5C14.1379 11.4 13.2379 10.5 12.1379 10.5Z" fill="#A60B09"/>
</svg>
