<svg width="20" height="20" viewBox="0 0 20 20" fill="none" xmlns="http://www.w3.org/2000/svg">
<path d="M10.0001 10.8333C11.8411 10.8333 13.3334 9.34094 13.3334 7.49999C13.3334 5.65904 11.8411 4.16666 10.0001 4.16666C8.15915 4.16666 6.66677 5.65904 6.66677 7.49999C6.66677 9.34094 8.15915 10.8333 10.0001 10.8333Z" fill="white"/>
<path d="M5.21843 15C4.03514 17.2251 7.95206 18.3333 10.0001 18.3333C12.0481 18.3333 15.9651 17.2251 14.7818 15C13.8919 13.3267 12.0921 11.6667 10.0001 11.6667C7.90812 11.6667 6.10827 13.3267 5.21843 15Z" fill="white"/>
<path d="M6.2501 9.99999C6.2501 10.9205 5.50391 11.6667 4.58344 11.6667C3.66296 11.6667 2.91677 10.9205 2.91677 9.99999C2.91677 9.07952 3.66296 8.33332 4.58344 8.33332C5.50391 8.33332 6.2501 9.07952 6.2501 9.99999Z" fill="white"/>
<path d="M2.41321 16.2038C2.2086 16.6161 1.70853 16.7844 1.29628 16.5798C0.884026 16.3752 0.715708 15.8751 0.920326 15.4628C1.22648 14.846 1.68988 14.2267 2.27281 13.7528C2.85597 13.2788 3.60324 12.9167 4.45608 12.9167C4.91632 12.9167 5.28941 13.2898 5.28941 13.75C5.28941 14.2102 4.91632 14.5833 4.45608 14.5833C4.08859 14.5833 3.70075 14.74 3.3241 15.0461C2.94723 15.3525 2.62613 15.7748 2.41321 16.2038Z" fill="white"/>
<path d="M17.3418 9.99999C17.3418 10.9205 16.5956 11.6667 15.6752 11.6667C14.7547 11.6667 14.0085 10.9205 14.0085 9.99999C14.0085 9.07952 14.7547 8.33332 15.6752 8.33332C16.5956 8.33332 17.3418 9.07952 17.3418 9.99999Z" fill="white"/>
<path d="M19.0835 15.4628C19.2882 15.8751 19.1198 16.3752 18.7076 16.5798C18.2953 16.7844 17.7953 16.6161 17.5907 16.2038C17.3777 15.7748 17.0566 15.3525 16.6798 15.0461C16.3031 14.74 15.9153 14.5833 15.5478 14.5833C15.0876 14.5833 14.7145 14.2102 14.7145 13.75C14.7145 13.2898 15.0876 12.9167 15.5478 12.9167C16.4006 12.9167 17.1479 13.2788 17.7311 13.7528C18.314 14.2267 18.7774 14.846 19.0835 15.4628Z" fill="white"/>
</svg>
