<svg width="20" height="19" viewBox="0 0 20 19" fill="none" xmlns="http://www.w3.org/2000/svg">
<path d="M17.3386 7.17273C17.8657 7.66727 18.3096 8.14727 18.6426 8.52545C18.8727 8.79273 19 9.13997 19 9.5C19 9.86003 18.8727 10.2073 18.6426 10.4745C17.186 12.1182 13.8704 15.3182 10 15.3182H9.4451M5.6579 14.0527C4.05095 13.1091 2.59897 11.901 1.35741 10.4745C1.12735 10.2073 1 9.86003 1 9.5C1 9.13997 1.12735 8.79273 1.35741 8.52545C2.81403 6.88182 6.12956 3.68182 10 3.68182C11.5257 3.71525 13.0188 4.15041 14.3421 4.94727M17.6299 1.5L2.37011 17.5" stroke="#A60B09" stroke-width="1.5" stroke-linecap="round" stroke-linejoin="round"/>
<path d="M8.04407 11.5509C7.52303 11.0079 7.22868 10.2703 7.22559 9.5C7.22559 8.72846 7.5179 7.98853 8.03822 7.44296C8.55854 6.8974 9.26425 6.59091 10.0001 6.59091C10.7348 6.59416 11.4382 6.90278 11.9561 7.44909M12.4139 10.9545C12.167 11.3972 11.8128 11.7635 11.3873 12.0164" stroke="#A60B09" stroke-width="1.5" stroke-linecap="round" stroke-linejoin="round"/>
</svg>
