<svg width="29" height="29" viewBox="0 0 29 29" fill="none" xmlns="http://www.w3.org/2000/svg">
<path d="M14.8628 6.33333C13.3307 6.33333 11.8136 6.6351 10.3982 7.2214C8.98272 7.80771 7.69659 8.66707 6.61325 9.75042C5.52989 10.8338 4.67053 12.1199 4.08423 13.5354C3.83765 14.1306 4.12034 14.8131 4.71563 15.0597C5.31091 15.3063 5.99337 15.0236 6.23995 14.4283C6.70899 13.2959 7.39648 12.267 8.26316 11.4003C9.12984 10.5337 10.1587 9.84616 11.2911 9.37712C12.4235 8.90808 13.6372 8.66666 14.8628 8.66666C16.0885 8.66666 17.3022 8.90808 18.4345 9.37712C19.5669 9.84616 20.5958 10.5337 21.4625 11.4003C22.3292 12.267 23.0167 13.2959 23.4857 14.4283C23.7323 15.0236 24.4147 15.3063 25.01 15.0597C25.6053 14.8131 25.888 14.1306 25.6414 13.5354C25.0551 12.1199 24.1958 10.8338 23.1124 9.75042C22.0291 8.66707 20.7429 7.80771 19.3275 7.2214C17.912 6.6351 16.3949 6.33333 14.8628 6.33333Z" fill="#A60B09"/>
<path d="M14.8629 9.83333C13.7904 9.83333 12.7285 10.0446 11.7376 10.455C10.7468 10.8654 9.84652 11.4669 9.08818 12.2253C8.32983 12.9836 7.72828 13.8839 7.31787 14.8747C7.17162 15.2278 7.05066 15.5899 6.95554 15.9583C6.79446 16.5822 7.16963 17.2185 7.7935 17.3796C8.41737 17.5407 9.0537 17.1655 9.21478 16.5417C9.28273 16.2785 9.36912 16.0199 9.47359 15.7677C9.76674 15.0599 10.1964 14.4169 10.7381 13.8752C11.2798 13.3335 11.9228 12.9039 12.6306 12.6107C13.3383 12.3175 14.0968 12.1667 14.8629 12.1667C15.6289 12.1667 16.3875 12.3175 17.0952 12.6107C17.8029 12.9039 18.446 13.3335 18.9877 13.8752C19.5293 14.4169 19.959 15.0599 20.2522 15.7677C20.3566 16.0199 20.443 16.2785 20.511 16.5417C20.6721 17.1655 21.3084 17.5407 21.9323 17.3796C22.5561 17.2185 22.9313 16.5822 22.7702 15.9583C22.6751 15.5899 22.5541 15.2278 22.4079 14.8747C21.9975 13.8839 21.3959 12.9836 20.6376 12.2253C19.8792 11.4669 18.979 10.8654 17.9881 10.455C16.9973 10.0446 15.9353 9.83333 14.8629 9.83333Z" fill="#A60B09"/>
<path d="M13.077 13.6886C13.6432 13.454 14.2501 13.3333 14.8629 13.3333C15.4757 13.3333 16.0826 13.454 16.6487 13.6886C17.2149 13.9231 17.7294 14.2668 18.1627 14.7002C18.5961 15.1335 18.9398 15.648 19.1743 16.2141C19.3089 16.539 19.406 16.8772 19.4643 17.2222C19.5717 17.8575 19.1437 18.4596 18.5084 18.567C17.8731 18.6744 17.271 18.2464 17.1636 17.6111C17.1344 17.4386 17.0859 17.2695 17.0186 17.1071C16.9013 16.824 16.7295 16.5667 16.5128 16.3501C16.2961 16.1334 16.0389 15.9615 15.7558 15.8443C15.4727 15.727 15.1693 15.6667 14.8629 15.6667C14.5565 15.6667 14.2531 15.727 13.97 15.8443C13.6869 15.9615 13.4296 16.1334 13.213 16.3501C12.9963 16.5667 12.8244 16.824 12.7072 17.1071C12.6399 17.2695 12.5914 17.4386 12.5622 17.6111C12.4548 18.2464 11.8527 18.6744 11.2174 18.567C10.5821 18.4596 10.1541 17.8575 10.2615 17.2222C10.3198 16.8772 10.4169 16.539 10.5515 16.2141C10.786 15.648 11.1297 15.1335 11.5631 14.7002C11.9964 14.2668 12.5108 13.9231 13.077 13.6886Z" fill="#A60B09"/>
<path d="M14.8629 21.5C15.8294 21.5 16.6129 20.7165 16.6129 19.75C16.6129 18.7835 15.8294 18 14.8629 18C13.8964 18 13.1129 18.7835 13.1129 19.75C13.1129 20.7165 13.8964 21.5 14.8629 21.5Z" fill="#A60B09"/>
</svg>
